<?xml version="1.0" encoding="utf-8"?>
<!-- Generator: Adobe Illustrator 16.0.0, SVG Export Plug-In . SVG Version: 6.00 Build 0)  -->
<!DOCTYPE svg PUBLIC "-//W3C//DTD SVG 1.1//EN" "http://www.w3.org/Graphics/SVG/1.1/DTD/svg11.dtd">
<svg version="1.1" id="Layer_1" xmlns="http://www.w3.org/2000/svg" xmlns:xlink="http://www.w3.org/1999/xlink" x="0px" y="0px"
	 width="1080px" height="240px" viewBox="0 0 1080 240" enable-background="new 0 0 1080 240" xml:space="preserve">
<g>
	<g>
		<defs>
			<polygon id="SVGID_1_" points="0.083,632 0.083,-382.667 1079.084,-382.667 1079.084,632 0.083,632 			"/>
		</defs>
		<clipPath id="SVGID_2_">
			<use xlink:href="#SVGID_1_"  overflow="visible"/>
		</clipPath>
		<path clip-path="url(#SVGID_2_)" fill="#0B0A0A" d="M1054.262,26.808c0,2.427-2.094,4.393-4.668,4.393h-17.803
			c-2.574,0-4.668-1.965-4.668-4.393V14.46c0-2.422,2.094-4.388,4.668-4.388h17.803c2.574,0,4.668,1.966,4.668,4.388V26.808
			L1054.262,26.808z M1054.262,232.639c0,2.432-2.094,4.396-4.668,4.396h-17.803c-2.574,0-4.668-1.965-4.668-4.396v-12.34
			c0-2.426,2.094-4.395,4.668-4.395h17.803c2.574,0,4.668,1.969,4.668,4.395V232.639L1054.262,232.639z M1012.82,26.808
			c0,2.427-2.084,4.393-4.666,4.393h-17.803c-2.57,0-4.67-1.965-4.67-4.393V14.46c0-2.422,2.1-4.388,4.67-4.388h17.803
			c2.582,0,4.666,1.966,4.666,4.388V26.808L1012.82,26.808z M1012.82,232.639c0,2.432-2.084,4.396-4.666,4.396h-17.803
			c-2.57,0-4.67-1.965-4.67-4.396v-12.34c0-2.426,2.1-4.395,4.67-4.395h17.803c2.582,0,4.666,1.969,4.666,4.395V232.639
			L1012.82,232.639z M971.4,26.808c0,2.427-2.094,4.393-4.678,4.393h-17.795c-2.582,0-4.668-1.965-4.668-4.393V14.46
			c0-2.422,2.086-4.388,4.668-4.388h17.795c2.584,0,4.678,1.966,4.678,4.388V26.808L971.4,26.808z M971.4,232.639
			c0,2.432-2.094,4.396-4.678,4.396h-17.795c-2.582,0-4.668-1.965-4.668-4.396v-12.34c0-2.426,2.086-4.395,4.668-4.395h17.795
			c2.584,0,4.678,1.969,4.678,4.395V232.639L971.4,232.639z M929.963,26.808c0,2.427-2.086,4.393-4.668,4.393H907.49
			c-2.578,0-4.67-1.965-4.67-4.393V14.46c0-2.422,2.092-4.388,4.67-4.388h17.805c2.582,0,4.668,1.966,4.668,4.388V26.808
			L929.963,26.808z M929.963,232.639c0,2.432-2.086,4.396-4.668,4.396H907.49c-2.578,0-4.67-1.965-4.67-4.396v-12.34
			c0-2.426,2.092-4.395,4.67-4.395h17.805c2.582,0,4.668,1.969,4.668,4.395V232.639L929.963,232.639z M888.531,26.808
			c0,2.427-2.088,4.393-4.67,4.393h-17.803c-2.576,0-4.668-1.965-4.668-4.393V14.46c0-2.422,2.092-4.388,4.668-4.388h17.803
			c2.582,0,4.67,1.966,4.67,4.388V26.808L888.531,26.808z M888.531,232.639c0,2.432-2.088,4.396-4.67,4.396h-17.803
			c-2.576,0-4.668-1.965-4.668-4.396v-12.34c0-2.426,2.092-4.395,4.668-4.395h17.803c2.582,0,4.67,1.969,4.67,4.395V232.639
			L888.531,232.639z M847.092,26.808c0,2.427-2.086,4.393-4.662,4.393h-17.803c-2.576,0-4.67-1.965-4.67-4.393V14.46
			c0-2.422,2.094-4.388,4.67-4.388h17.803c2.576,0,4.662,1.966,4.662,4.388V26.808L847.092,26.808z M847.092,232.639
			c0,2.432-2.086,4.396-4.662,4.396h-17.803c-2.576,0-4.67-1.965-4.67-4.396v-12.34c0-2.426,2.094-4.395,4.67-4.395h17.803
			c2.576,0,4.662,1.969,4.662,4.395V232.639L847.092,232.639z M805.66,26.808c0,2.427-2.086,4.393-4.662,4.393h-17.811
			c-2.568,0-4.668-1.965-4.668-4.393V14.46c0-2.422,2.1-4.388,4.668-4.388h17.811c2.576,0,4.662,1.966,4.662,4.388V26.808
			L805.66,26.808z M805.66,232.639c0,2.432-2.086,4.396-4.662,4.396h-17.811c-2.568,0-4.668-1.965-4.668-4.396v-12.34
			c0-2.426,2.1-4.395,4.668-4.395h17.811c2.576,0,4.662,1.969,4.662,4.395V232.639L805.66,232.639z M764.227,26.808
			c0,2.427-2.082,4.393-4.662,4.393h-17.803c-2.58,0-4.67-1.965-4.67-4.393V14.46c0-2.422,2.09-4.388,4.67-4.388h17.803
			c2.58,0,4.662,1.966,4.662,4.388V26.808L764.227,26.808z M764.227,232.639c0,2.432-2.082,4.396-4.662,4.396h-17.803
			c-2.58,0-4.67-1.965-4.67-4.396v-12.34c0-2.426,2.09-4.395,4.67-4.395h17.803c2.58,0,4.662,1.969,4.662,4.395V232.639
			L764.227,232.639z M722.797,26.808c0,2.427-2.086,4.393-4.668,4.393h-17.803c-2.576,0-4.668-1.965-4.668-4.393V14.46
			c0-2.422,2.092-4.388,4.668-4.388h17.803c2.582,0,4.668,1.966,4.668,4.388V26.808L722.797,26.808z M722.797,232.639
			c0,2.432-2.086,4.396-4.668,4.396h-17.803c-2.576,0-4.668-1.965-4.668-4.396v-12.34c0-2.426,2.092-4.395,4.668-4.395h17.803
			c2.582,0,4.668,1.969,4.668,4.395V232.639L722.797,232.639z M681.365,26.808c0,2.427-2.084,4.393-4.666,4.393h-17.805
			c-2.574,0-4.672-1.965-4.672-4.393V14.46c0-2.422,2.098-4.388,4.672-4.388h17.805c2.582,0,4.666,1.966,4.666,4.388V26.808
			L681.365,26.808z M681.365,232.639c0,2.432-2.084,4.396-4.666,4.396h-17.805c-2.574,0-4.672-1.965-4.672-4.396v-12.34
			c0-2.426,2.098-4.395,4.672-4.395h17.805c2.582,0,4.666,1.969,4.666,4.395V232.639L681.365,232.639z M639.936,26.808
			c0,2.427-2.086,4.393-4.67,4.393h-17.801c-2.578,0-4.67-1.965-4.67-4.393V14.46c0-2.422,2.092-4.388,4.67-4.388h17.801
			c2.584,0,4.67,1.966,4.67,4.388V26.808L639.936,26.808z M639.936,232.639c0,2.432-2.086,4.396-4.67,4.396h-17.801
			c-2.578,0-4.67-1.965-4.67-4.396v-12.34c0-2.426,2.092-4.395,4.67-4.395h17.801c2.584,0,4.67,1.969,4.67,4.395V232.639
			L639.936,232.639z M598.504,26.808c0,2.427-2.086,4.393-4.67,4.393h-17.801c-2.578,0-4.672-1.965-4.672-4.393V14.46
			c0-2.422,2.094-4.388,4.672-4.388h17.801c2.584,0,4.67,1.966,4.67,4.388V26.808L598.504,26.808z M598.504,232.639
			c0,2.432-2.086,4.396-4.67,4.396h-17.801c-2.578,0-4.672-1.965-4.672-4.396v-12.34c0-2.426,2.094-4.395,4.672-4.395h17.801
			c2.584,0,4.67,1.969,4.67,4.395V232.639L598.504,232.639z M557.07,26.808c0,2.427-2.092,4.393-4.666,4.393h-17.807
			c-2.58,0-4.666-1.965-4.666-4.393V14.46c0-2.422,2.086-4.388,4.666-4.388h17.807c2.574,0,4.666,1.966,4.666,4.388V26.808
			L557.07,26.808z M557.07,232.639c0,2.432-2.092,4.396-4.666,4.396h-17.807c-2.58,0-4.666-1.965-4.666-4.396v-12.34
			c0-2.426,2.086-4.395,4.666-4.395h17.807c2.574,0,4.666,1.969,4.666,4.395V232.639L557.07,232.639z M515.636,26.808
			c0,2.427-2.086,4.393-4.671,4.393h-17.8c-2.579,0-4.671-1.965-4.671-4.393V14.46c0-2.422,2.092-4.388,4.671-4.388h17.8
			c2.585,0,4.671,1.966,4.671,4.388V26.808L515.636,26.808z M515.636,232.639c0,2.432-2.086,4.396-4.671,4.396h-17.8
			c-2.579,0-4.671-1.965-4.671-4.396v-12.34c0-2.426,2.092-4.395,4.671-4.395h17.8c2.585,0,4.671,1.969,4.671,4.395V232.639
			L515.636,232.639z M474.204,26.808c0,2.427-2.087,4.393-4.67,4.393h-17.802c-2.58,0-4.667-1.965-4.667-4.393V14.46
			c0-2.422,2.087-4.388,4.667-4.388h17.802c2.583,0,4.67,1.966,4.67,4.388V26.808L474.204,26.808z M474.204,232.639
			c0,2.432-2.087,4.396-4.67,4.396h-17.802c-2.58,0-4.667-1.965-4.667-4.396v-12.34c0-2.426,2.087-4.395,4.667-4.395h17.802
			c2.583,0,4.67,1.969,4.67,4.395V232.639L474.204,232.639z M432.769,26.808c0,2.427-2.084,4.393-4.667,4.393h-17.803
			c-2.575,0-4.669-1.965-4.669-4.393V14.46c0-2.422,2.095-4.388,4.669-4.388h17.803c2.582,0,4.667,1.966,4.667,4.388V26.808
			L432.769,26.808z M432.769,232.639c0,2.432-2.084,4.396-4.667,4.396h-17.803c-2.575,0-4.669-1.965-4.669-4.396v-12.34
			c0-2.426,2.095-4.395,4.669-4.395h17.803c2.582,0,4.667,1.969,4.667,4.395V232.639L432.769,232.639z M391.342,26.808
			c0,2.427-2.091,4.393-4.669,4.393h-17.804c-2.576,0-4.669-1.965-4.669-4.393V14.46c0-2.422,2.093-4.388,4.669-4.388h17.804
			c2.578,0,4.669,1.966,4.669,4.388V26.808L391.342,26.808z M391.342,232.639c0,2.432-2.091,4.396-4.669,4.396h-17.804
			c-2.576,0-4.669-1.965-4.669-4.396v-12.34c0-2.426,2.093-4.395,4.669-4.395h17.804c2.578,0,4.669,1.969,4.669,4.395V232.639
			L391.342,232.639z M349.909,26.808c0,2.427-2.089,4.393-4.668,4.393h-17.805c-2.575,0-4.669-1.965-4.669-4.393V14.46
			c0-2.422,2.094-4.388,4.669-4.388h17.805c2.58,0,4.668,1.966,4.668,4.388V26.808L349.909,26.808z M349.909,232.639
			c0,2.432-2.089,4.396-4.668,4.396h-17.805c-2.575,0-4.669-1.965-4.669-4.396v-12.34c0-2.426,2.094-4.395,4.669-4.395h17.805
			c2.58,0,4.668,1.969,4.668,4.395V232.639L349.909,232.639z M308.473,26.808c0,2.427-2.089,4.393-4.669,4.393h-17.802
			c-2.576,0-4.666-1.965-4.666-4.393V14.46c0-2.422,2.089-4.388,4.666-4.388h17.802c2.58,0,4.669,1.966,4.669,4.388V26.808
			L308.473,26.808z M308.473,232.639c0,2.432-2.089,4.396-4.669,4.396h-17.802c-2.576,0-4.666-1.965-4.666-4.396v-12.34
			c0-2.426,2.089-4.395,4.666-4.395h17.802c2.58,0,4.669,1.969,4.669,4.395V232.639L308.473,232.639z M267.039,26.808
			c0,2.427-2.09,4.393-4.664,4.393h-17.805c-2.575,0-4.672-1.965-4.672-4.393V14.46c0-2.422,2.098-4.388,4.672-4.388h17.805
			c2.574,0,4.664,1.966,4.664,4.388V26.808L267.039,26.808z M267.039,232.639c0,2.432-2.09,4.396-4.664,4.396h-17.805
			c-2.575,0-4.672-1.965-4.672-4.396v-12.34c0-2.426,2.098-4.395,4.672-4.395h17.805c2.574,0,4.664,1.969,4.664,4.395V232.639
			L267.039,232.639z M225.607,26.808c0,2.427-2.085,4.393-4.665,4.393h-17.808c-2.575,0-4.667-1.965-4.667-4.393V14.46
			c0-2.422,2.092-4.388,4.667-4.388h17.808c2.58,0,4.665,1.966,4.665,4.388V26.808L225.607,26.808z M225.607,232.639
			c0,2.432-2.085,4.396-4.665,4.396h-17.808c-2.575,0-4.667-1.965-4.667-4.396v-12.34c0-2.426,2.092-4.395,4.667-4.395h17.808
			c2.58,0,4.665,1.969,4.665,4.395V232.639L225.607,232.639z M184.177,26.808c0,2.427-2.092,4.393-4.67,4.393h-17.804
			c-2.576,0-4.668-1.965-4.668-4.393V14.46c0-2.422,2.092-4.388,4.668-4.388h17.804c2.578,0,4.67,1.966,4.67,4.388V26.808
			L184.177,26.808z M184.177,232.639c0,2.432-2.092,4.396-4.67,4.396h-17.804c-2.576,0-4.668-1.965-4.668-4.396v-12.34
			c0-2.426,2.092-4.395,4.668-4.395h17.804c2.578,0,4.67,1.969,4.67,4.395V232.639L184.177,232.639z M142.744,26.808
			c0,2.427-2.089,4.393-4.669,4.393h-17.802c-2.575,0-4.667-1.965-4.667-4.393V14.46c0-2.422,2.092-4.388,4.667-4.388h17.802
			c2.58,0,4.669,1.966,4.669,4.388V26.808L142.744,26.808z M142.744,232.639c0,2.432-2.089,4.396-4.669,4.396h-17.802
			c-2.575,0-4.667-1.965-4.667-4.396v-12.34c0-2.426,2.092-4.395,4.667-4.395h17.802c2.58,0,4.669,1.969,4.669,4.395V232.639
			L142.744,232.639z M101.309,26.808c0,2.427-2.089,4.393-4.668,4.393H78.841c-2.58,0-4.669-1.965-4.669-4.393V14.46
			c0-2.422,2.089-4.388,4.669-4.388h17.799c2.58,0,4.668,1.966,4.668,4.388V26.808L101.309,26.808z M101.309,232.639
			c0,2.432-2.089,4.396-4.668,4.396H78.841c-2.58,0-4.669-1.965-4.669-4.396v-12.34c0-2.426,2.089-4.395,4.669-4.395h17.799
			c2.58,0,4.668,1.969,4.668,4.395V232.639L101.309,232.639z M59.878,26.808c0,2.427-2.09,4.393-4.668,4.393H37.402
			c-2.572,0-4.664-1.965-4.664-4.393V14.46c0-2.422,2.092-4.388,4.664-4.388h17.808c2.579,0,4.668,1.966,4.668,4.388V26.808
			L59.878,26.808z M59.878,232.639c0,2.432-2.09,4.396-4.668,4.396H37.402c-2.572,0-4.664-1.965-4.664-4.396v-12.34
			c0-2.426,2.092-4.395,4.664-4.395h17.808c2.579,0,4.668,1.969,4.668,4.395V232.639L59.878,232.639z M1068.283,10.072h10.801
			V-0.035h-1080v10.243l0.597-0.136h14.809c2.146,0,3.884,1.966,3.884,4.388v12.348c0,2.427-1.738,4.393-3.884,4.393H-0.32
			l-0.597-0.136V216.04l0.597-0.136h14.809c2.146,0,3.884,1.969,3.884,4.395v12.34c0,2.432-1.738,4.396-3.884,4.396H-0.32
			l-0.597-0.137v11.11h1080v-10.974h-10.801c-2.145,0-3.879-1.965-3.879-4.396v-12.34c0-2.426,1.734-4.395,3.879-4.395h10.801
			V31.201h-10.801c-2.145,0-3.879-1.965-3.879-4.393V14.46C1064.404,12.038,1066.139,10.072,1068.283,10.072L1068.283,10.072z"/>
	</g>
	<g>
		<defs>
			<polygon id="SVGID_3_" points="0.083,632 0.083,-382.667 1079.084,-382.667 1079.084,632 0.083,632 			"/>
		</defs>
		<clipPath id="SVGID_4_">
			<use xlink:href="#SVGID_3_"  overflow="visible"/>
		</clipPath>
	</g>
</g>
</svg>
