<?xml version="1.0" encoding="utf-8"?>
<!-- Generator: Adobe Illustrator 16.0.0, SVG Export Plug-In . SVG Version: 6.00 Build 0)  -->
<!DOCTYPE svg PUBLIC "-//W3C//DTD SVG 1.1//EN" "http://www.w3.org/Graphics/SVG/1.1/DTD/svg11.dtd">
<svg version="1.1" id="Layer_1" xmlns="http://www.w3.org/2000/svg" xmlns:xlink="http://www.w3.org/1999/xlink" x="0px" y="0px"
	 width="1080px" height="240px" viewBox="0 0 1080 240" enable-background="new 0 0 1080 240" xml:space="preserve">
<g>
	<g>
		<defs>
			<polygon id="SVGID_1_" points="1,632 1,-382.667 1080,-382.667 1080,632 1,632 			"/>
		</defs>
		<clipPath id="SVGID_2_">
			<use xlink:href="#SVGID_1_"  overflow="visible"/>
		</clipPath>
		<path clip-path="url(#SVGID_2_)" fill="#0B0A0A" d="M1055.179,26.808c0,2.427-2.094,4.393-4.669,4.393h-17.803
			c-2.574,0-4.667-1.965-4.667-4.393V14.46c0-2.422,2.093-4.388,4.667-4.388h17.803c2.575,0,4.669,1.966,4.669,4.388V26.808
			L1055.179,26.808z M1055.179,232.639c0,2.432-2.094,4.396-4.669,4.396h-17.803c-2.574,0-4.667-1.965-4.667-4.396v-12.34
			c0-2.426,2.093-4.395,4.667-4.395h17.803c2.575,0,4.669,1.969,4.669,4.395V232.639L1055.179,232.639z M1013.736,26.808
			c0,2.427-2.083,4.393-4.665,4.393h-17.804c-2.569,0-4.669-1.965-4.669-4.393V14.46c0-2.422,2.1-4.388,4.669-4.388h17.804
			c2.582,0,4.665,1.966,4.665,4.388V26.808L1013.736,26.808z M1013.736,232.639c0,2.432-2.083,4.396-4.665,4.396h-17.804
			c-2.569,0-4.669-1.965-4.669-4.396v-12.34c0-2.426,2.1-4.395,4.669-4.395h17.804c2.582,0,4.665,1.969,4.665,4.395V232.639
			L1013.736,232.639z M972.317,26.808c0,2.427-2.095,4.393-4.678,4.393h-17.796c-2.582,0-4.667-1.965-4.667-4.393V14.46
			c0-2.422,2.085-4.388,4.667-4.388h17.796c2.583,0,4.678,1.966,4.678,4.388V26.808L972.317,26.808z M972.317,232.639
			c0,2.432-2.095,4.396-4.678,4.396h-17.796c-2.582,0-4.667-1.965-4.667-4.396v-12.34c0-2.426,2.085-4.395,4.667-4.395h17.796
			c2.583,0,4.678,1.969,4.678,4.395V232.639L972.317,232.639z M930.879,26.808c0,2.427-2.085,4.393-4.668,4.393h-17.805
			c-2.577,0-4.67-1.965-4.67-4.393V14.46c0-2.422,2.093-4.388,4.67-4.388h17.805c2.583,0,4.668,1.966,4.668,4.388V26.808
			L930.879,26.808z M930.879,232.639c0,2.432-2.085,4.396-4.668,4.396h-17.805c-2.577,0-4.67-1.965-4.67-4.396v-12.34
			c0-2.426,2.093-4.395,4.67-4.395h17.805c2.583,0,4.668,1.969,4.668,4.395V232.639L930.879,232.639z M889.447,26.808
			c0,2.427-2.087,4.393-4.669,4.393h-17.804c-2.575,0-4.667-1.965-4.667-4.393V14.46c0-2.422,2.092-4.388,4.667-4.388h17.804
			c2.582,0,4.669,1.966,4.669,4.388V26.808L889.447,26.808z M889.447,232.639c0,2.432-2.087,4.396-4.669,4.396h-17.804
			c-2.575,0-4.667-1.965-4.667-4.396v-12.34c0-2.426,2.092-4.395,4.667-4.395h17.804c2.582,0,4.669,1.969,4.669,4.395V232.639
			L889.447,232.639z M848.008,26.808c0,2.427-2.085,4.393-4.662,4.393h-17.803c-2.576,0-4.67-1.965-4.67-4.393V14.46
			c0-2.422,2.094-4.388,4.67-4.388h17.803c2.577,0,4.662,1.966,4.662,4.388V26.808L848.008,26.808z M848.008,232.639
			c0,2.432-2.085,4.396-4.662,4.396h-17.803c-2.576,0-4.67-1.965-4.67-4.396v-12.34c0-2.426,2.094-4.395,4.67-4.395h17.803
			c2.577,0,4.662,1.969,4.662,4.395V232.639L848.008,232.639z M806.576,26.808c0,2.427-2.085,4.393-4.661,4.393h-17.811
			c-2.569,0-4.669-1.965-4.669-4.393V14.46c0-2.422,2.1-4.388,4.669-4.388h17.811c2.576,0,4.661,1.966,4.661,4.388V26.808
			L806.576,26.808z M806.576,232.639c0,2.432-2.085,4.396-4.661,4.396h-17.811c-2.569,0-4.669-1.965-4.669-4.396v-12.34
			c0-2.426,2.1-4.395,4.669-4.395h17.811c2.576,0,4.661,1.969,4.661,4.395V232.639L806.576,232.639z M765.144,26.808
			c0,2.427-2.082,4.393-4.663,4.393h-17.802c-2.581,0-4.67-1.965-4.67-4.393V14.46c0-2.422,2.089-4.388,4.67-4.388h17.802
			c2.581,0,4.663,1.966,4.663,4.388V26.808L765.144,26.808z M765.144,232.639c0,2.432-2.082,4.396-4.663,4.396h-17.802
			c-2.581,0-4.67-1.965-4.67-4.396v-12.34c0-2.426,2.089-4.395,4.67-4.395h17.802c2.581,0,4.663,1.969,4.663,4.395V232.639
			L765.144,232.639z M723.714,26.808c0,2.427-2.086,4.393-4.669,4.393h-17.803c-2.576,0-4.668-1.965-4.668-4.393V14.46
			c0-2.422,2.092-4.388,4.668-4.388h17.803c2.583,0,4.669,1.966,4.669,4.388V26.808L723.714,26.808z M723.714,232.639
			c0,2.432-2.086,4.396-4.669,4.396h-17.803c-2.576,0-4.668-1.965-4.668-4.396v-12.34c0-2.426,2.092-4.395,4.668-4.395h17.803
			c2.583,0,4.669,1.969,4.669,4.395V232.639L723.714,232.639z M682.281,26.808c0,2.427-2.083,4.393-4.665,4.393h-17.805
			c-2.575,0-4.673-1.965-4.673-4.393V14.46c0-2.422,2.098-4.388,4.673-4.388h17.805c2.582,0,4.665,1.966,4.665,4.388V26.808
			L682.281,26.808z M682.281,232.639c0,2.432-2.083,4.396-4.665,4.396h-17.805c-2.575,0-4.673-1.965-4.673-4.396v-12.34
			c0-2.426,2.098-4.395,4.673-4.395h17.805c2.582,0,4.665,1.969,4.665,4.395V232.639L682.281,232.639z M640.853,26.808
			c0,2.427-2.086,4.393-4.671,4.393h-17.801c-2.578,0-4.67-1.965-4.67-4.393V14.46c0-2.422,2.092-4.388,4.67-4.388h17.801
			c2.585,0,4.671,1.966,4.671,4.388V26.808L640.853,26.808z M640.853,232.639c0,2.432-2.086,4.396-4.671,4.396h-17.801
			c-2.578,0-4.67-1.965-4.67-4.396v-12.34c0-2.426,2.092-4.395,4.67-4.395h17.801c2.585,0,4.671,1.969,4.671,4.395V232.639
			L640.853,232.639z M599.42,26.808c0,2.427-2.085,4.393-4.669,4.393h-17.802c-2.578,0-4.671-1.965-4.671-4.393V14.46
			c0-2.422,2.093-4.388,4.671-4.388h17.802c2.584,0,4.669,1.966,4.669,4.388V26.808L599.42,26.808z M599.42,232.639
			c0,2.432-2.085,4.396-4.669,4.396h-17.802c-2.578,0-4.671-1.965-4.671-4.396v-12.34c0-2.426,2.093-4.395,4.671-4.395h17.802
			c2.584,0,4.669,1.969,4.669,4.395V232.639L599.42,232.639z M557.987,26.808c0,2.427-2.093,4.393-4.667,4.393h-17.806
			c-2.58,0-4.666-1.965-4.666-4.393V14.46c0-2.422,2.086-4.388,4.666-4.388h17.806c2.574,0,4.667,1.966,4.667,4.388V26.808
			L557.987,26.808z M557.987,232.639c0,2.432-2.093,4.396-4.667,4.396h-17.806c-2.58,0-4.666-1.965-4.666-4.396v-12.34
			c0-2.426,2.086-4.395,4.666-4.395h17.806c2.574,0,4.667,1.969,4.667,4.395V232.639L557.987,232.639z M516.552,26.808
			c0,2.427-2.086,4.393-4.671,4.393h-17.8c-2.579,0-4.671-1.965-4.671-4.393V14.46c0-2.422,2.092-4.388,4.671-4.388h17.8
			c2.585,0,4.671,1.966,4.671,4.388V26.808L516.552,26.808z M516.552,232.639c0,2.432-2.086,4.396-4.671,4.396h-17.8
			c-2.579,0-4.671-1.965-4.671-4.396v-12.34c0-2.426,2.092-4.395,4.671-4.395h17.8c2.585,0,4.671,1.969,4.671,4.395V232.639
			L516.552,232.639z M475.121,26.808c0,2.427-2.087,4.393-4.67,4.393h-17.802c-2.58,0-4.667-1.965-4.667-4.393V14.46
			c0-2.422,2.087-4.388,4.667-4.388h17.802c2.583,0,4.67,1.966,4.67,4.388V26.808L475.121,26.808z M475.121,232.639
			c0,2.432-2.087,4.396-4.67,4.396h-17.802c-2.58,0-4.667-1.965-4.667-4.396v-12.34c0-2.426,2.087-4.395,4.667-4.395h17.802
			c2.583,0,4.67,1.969,4.67,4.395V232.639L475.121,232.639z M433.685,26.808c0,2.427-2.084,4.393-4.667,4.393h-17.803
			c-2.575,0-4.669-1.965-4.669-4.393V14.46c0-2.422,2.095-4.388,4.669-4.388h17.803c2.582,0,4.667,1.966,4.667,4.388V26.808
			L433.685,26.808z M433.685,232.639c0,2.432-2.084,4.396-4.667,4.396h-17.803c-2.575,0-4.669-1.965-4.669-4.396v-12.34
			c0-2.426,2.095-4.395,4.669-4.395h17.803c2.582,0,4.667,1.969,4.667,4.395V232.639L433.685,232.639z M392.258,26.808
			c0,2.427-2.091,4.393-4.669,4.393h-17.804c-2.576,0-4.669-1.965-4.669-4.393V14.46c0-2.422,2.093-4.388,4.669-4.388h17.804
			c2.578,0,4.669,1.966,4.669,4.388V26.808L392.258,26.808z M392.258,232.639c0,2.432-2.091,4.396-4.669,4.396h-17.804
			c-2.576,0-4.669-1.965-4.669-4.396v-12.34c0-2.426,2.093-4.395,4.669-4.395h17.804c2.578,0,4.669,1.969,4.669,4.395V232.639
			L392.258,232.639z M350.825,26.808c0,2.427-2.089,4.393-4.668,4.393h-17.805c-2.575,0-4.669-1.965-4.669-4.393V14.46
			c0-2.422,2.094-4.388,4.669-4.388h17.805c2.58,0,4.668,1.966,4.668,4.388V26.808L350.825,26.808z M350.825,232.639
			c0,2.432-2.089,4.396-4.668,4.396h-17.805c-2.575,0-4.669-1.965-4.669-4.396v-12.34c0-2.426,2.094-4.395,4.669-4.395h17.805
			c2.58,0,4.668,1.969,4.668,4.395V232.639L350.825,232.639z M309.39,26.808c0,2.427-2.089,4.393-4.669,4.393h-17.802
			c-2.576,0-4.666-1.965-4.666-4.393V14.46c0-2.422,2.089-4.388,4.666-4.388h17.802c2.58,0,4.669,1.966,4.669,4.388V26.808
			L309.39,26.808z M309.39,232.639c0,2.432-2.089,4.396-4.669,4.396h-17.802c-2.576,0-4.666-1.965-4.666-4.396v-12.34
			c0-2.426,2.089-4.395,4.666-4.395h17.802c2.58,0,4.669,1.969,4.669,4.395V232.639L309.39,232.639z M267.955,26.808
			c0,2.427-2.09,4.393-4.664,4.393h-17.805c-2.575,0-4.672-1.965-4.672-4.393V14.46c0-2.422,2.098-4.388,4.672-4.388h17.805
			c2.574,0,4.664,1.966,4.664,4.388V26.808L267.955,26.808z M267.955,232.639c0,2.432-2.09,4.396-4.664,4.396h-17.805
			c-2.575,0-4.672-1.965-4.672-4.396v-12.34c0-2.426,2.098-4.395,4.672-4.395h17.805c2.574,0,4.664,1.969,4.664,4.395V232.639
			L267.955,232.639z M226.523,26.808c0,2.427-2.085,4.393-4.665,4.393h-17.808c-2.575,0-4.667-1.965-4.667-4.393V14.46
			c0-2.422,2.092-4.388,4.667-4.388h17.808c2.58,0,4.665,1.966,4.665,4.388V26.808L226.523,26.808z M226.523,232.639
			c0,2.432-2.085,4.396-4.665,4.396h-17.808c-2.575,0-4.667-1.965-4.667-4.396v-12.34c0-2.426,2.092-4.395,4.667-4.395h17.808
			c2.58,0,4.665,1.969,4.665,4.395V232.639L226.523,232.639z M185.094,26.808c0,2.427-2.092,4.393-4.67,4.393H162.62
			c-2.576,0-4.668-1.965-4.668-4.393V14.46c0-2.422,2.092-4.388,4.668-4.388h17.804c2.578,0,4.67,1.966,4.67,4.388V26.808
			L185.094,26.808z M185.094,232.639c0,2.432-2.092,4.396-4.67,4.396H162.62c-2.576,0-4.668-1.965-4.668-4.396v-12.34
			c0-2.426,2.092-4.395,4.668-4.395h17.804c2.578,0,4.67,1.969,4.67,4.395V232.639L185.094,232.639z M143.66,26.808
			c0,2.427-2.089,4.393-4.669,4.393h-17.802c-2.575,0-4.667-1.965-4.667-4.393V14.46c0-2.422,2.092-4.388,4.667-4.388h17.802
			c2.58,0,4.669,1.966,4.669,4.388V26.808L143.66,26.808z M143.66,232.639c0,2.432-2.089,4.396-4.669,4.396h-17.802
			c-2.575,0-4.667-1.965-4.667-4.396v-12.34c0-2.426,2.092-4.395,4.667-4.395h17.802c2.58,0,4.669,1.969,4.669,4.395V232.639
			L143.66,232.639z M102.226,26.808c0,2.427-2.089,4.393-4.668,4.393H79.758c-2.58,0-4.669-1.965-4.669-4.393V14.46
			c0-2.422,2.089-4.388,4.669-4.388h17.799c2.58,0,4.668,1.966,4.668,4.388V26.808L102.226,26.808z M102.226,232.639
			c0,2.432-2.089,4.396-4.668,4.396H79.758c-2.58,0-4.669-1.965-4.669-4.396v-12.34c0-2.426,2.089-4.395,4.669-4.395h17.799
			c2.58,0,4.668,1.969,4.668,4.395V232.639L102.226,232.639z M60.794,26.808c0,2.427-2.09,4.393-4.668,4.393H38.318
			c-2.572,0-4.664-1.965-4.664-4.393V14.46c0-2.422,2.092-4.388,4.664-4.388h17.808c2.579,0,4.668,1.966,4.668,4.388V26.808
			L60.794,26.808z M60.794,232.639c0,2.432-2.09,4.396-4.668,4.396H38.318c-2.572,0-4.664-1.965-4.664-4.396v-12.34
			c0-2.426,2.092-4.395,4.664-4.395h17.808c2.579,0,4.668,1.969,4.668,4.395V232.639L60.794,232.639z M1069.199,10.072H1080V-0.035
			H0v10.243l0.597-0.136h14.809c2.146,0,3.884,1.966,3.884,4.388v12.348c0,2.427-1.738,4.393-3.884,4.393H0.597L0,31.065V216.04
			l0.597-0.136h14.809c2.146,0,3.884,1.969,3.884,4.395v12.34c0,2.432-1.738,4.396-3.884,4.396H0.597L0,236.898v11.11h1080v-10.974
			h-10.801c-2.144,0-3.878-1.965-3.878-4.396v-12.34c0-2.426,1.734-4.395,3.878-4.395H1080V31.201h-10.801
			c-2.144,0-3.878-1.965-3.878-4.393V14.46C1065.321,12.038,1067.056,10.072,1069.199,10.072L1069.199,10.072z"/>
	</g>
	<g>
		<defs>
			<polygon id="SVGID_3_" points="1,632 1,-382.667 1080,-382.667 1080,632 1,632 			"/>
		</defs>
		<clipPath id="SVGID_4_">
			<use xlink:href="#SVGID_3_"  overflow="visible"/>
		</clipPath>
	</g>
</g>
</svg>
